<mxfile host="Electron" agent="Mozilla/5.0 (Windows NT 10.0; Win64; x64) AppleWebKit/537.36 (KHTML, like Gecko) draw.io/24.7.17 Chrome/128.0.6613.36 Electron/32.0.1 Safari/537.36" version="24.7.17">
  <diagram name="Seite-1" id="PyiwuqZgropUcwYUhRjU">
    <mxGraphModel dx="2062" dy="2013" grid="1" gridSize="10" guides="1" tooltips="1" connect="1" arrows="1" fold="1" page="1" pageScale="1" pageWidth="827" pageHeight="1169" math="0" shadow="0">
      <root>
        <mxCell id="0" />
        <mxCell id="1" parent="0" />
        <mxCell id="UOz1emexsOZY1gAcWL7I-3" value="t_absolvent" style="whiteSpace=wrap;html=1;align=center;" parent="1" vertex="1">
          <mxGeometry x="40" y="40" width="100" height="40" as="geometry" />
        </mxCell>
        <mxCell id="UOz1emexsOZY1gAcWL7I-4" value="name" style="ellipse;whiteSpace=wrap;html=1;align=center;" parent="1" vertex="1">
          <mxGeometry x="-60" y="-50" width="100" height="40" as="geometry" />
        </mxCell>
        <mxCell id="UOz1emexsOZY1gAcWL7I-5" value="anrede&amp;nbsp;" style="ellipse;whiteSpace=wrap;html=1;align=center;" parent="1" vertex="1">
          <mxGeometry x="50" y="-50" width="100" height="40" as="geometry" />
        </mxCell>
        <mxCell id="UOz1emexsOZY1gAcWL7I-6" value="fortlaufendeNr" style="ellipse;whiteSpace=wrap;html=1;align=center;fontStyle=4;" parent="1" vertex="1">
          <mxGeometry x="160" y="-50" width="100" height="40" as="geometry" />
        </mxCell>
        <mxCell id="UOz1emexsOZY1gAcWL7I-7" value="verstorben" style="ellipse;whiteSpace=wrap;html=1;align=center;" parent="1" vertex="1">
          <mxGeometry x="270" y="-50" width="100" height="40" as="geometry" />
        </mxCell>
        <mxCell id="UOz1emexsOZY1gAcWL7I-8" value="erlagscheinNr" style="ellipse;whiteSpace=wrap;html=1;align=center;" parent="1" vertex="1">
          <mxGeometry x="-170" y="-50" width="100" height="40" as="geometry" />
        </mxCell>
        <mxCell id="UOz1emexsOZY1gAcWL7I-9" value="abgemeldet" style="ellipse;whiteSpace=wrap;html=1;align=center;" parent="1" vertex="1">
          <mxGeometry x="380" y="-50" width="100" height="40" as="geometry" />
        </mxCell>
        <mxCell id="UOz1emexsOZY1gAcWL7I-10" value="Berufstitel" style="ellipse;whiteSpace=wrap;html=1;align=center;" parent="1" vertex="1">
          <mxGeometry x="50" y="-100" width="100" height="40" as="geometry" />
        </mxCell>
        <mxCell id="UOz1emexsOZY1gAcWL7I-11" value="akademischer_Titel" style="ellipse;whiteSpace=wrap;html=1;align=center;" parent="1" vertex="1">
          <mxGeometry x="-60" y="-100" width="100" height="40" as="geometry" />
        </mxCell>
        <mxCell id="UOz1emexsOZY1gAcWL7I-12" value="Berufsbezeichnung" style="ellipse;whiteSpace=wrap;html=1;align=center;" parent="1" vertex="1">
          <mxGeometry x="160" y="-100" width="100" height="40" as="geometry" />
        </mxCell>
        <mxCell id="UOz1emexsOZY1gAcWL7I-13" value="bemerkung" style="ellipse;whiteSpace=wrap;html=1;align=center;" parent="1" vertex="1">
          <mxGeometry x="270" y="-100" width="100" height="40" as="geometry" />
        </mxCell>
        <mxCell id="UOz1emexsOZY1gAcWL7I-18" value="" style="endArrow=none;html=1;rounded=0;" parent="1" source="UOz1emexsOZY1gAcWL7I-7" target="UOz1emexsOZY1gAcWL7I-3" edge="1">
          <mxGeometry width="50" height="50" relative="1" as="geometry">
            <mxPoint x="40" y="130" as="sourcePoint" />
            <mxPoint x="90" y="80" as="targetPoint" />
          </mxGeometry>
        </mxCell>
        <mxCell id="UOz1emexsOZY1gAcWL7I-19" value="" style="endArrow=none;html=1;rounded=0;" parent="1" source="UOz1emexsOZY1gAcWL7I-13" target="UOz1emexsOZY1gAcWL7I-3" edge="1">
          <mxGeometry width="50" height="50" relative="1" as="geometry">
            <mxPoint x="40" y="130" as="sourcePoint" />
            <mxPoint x="90" y="80" as="targetPoint" />
          </mxGeometry>
        </mxCell>
        <mxCell id="UOz1emexsOZY1gAcWL7I-20" value="" style="endArrow=none;html=1;rounded=0;" parent="1" source="UOz1emexsOZY1gAcWL7I-6" target="UOz1emexsOZY1gAcWL7I-3" edge="1">
          <mxGeometry width="50" height="50" relative="1" as="geometry">
            <mxPoint x="40" y="130" as="sourcePoint" />
            <mxPoint x="90" y="80" as="targetPoint" />
          </mxGeometry>
        </mxCell>
        <mxCell id="UOz1emexsOZY1gAcWL7I-21" value="" style="endArrow=none;html=1;rounded=0;" parent="1" source="UOz1emexsOZY1gAcWL7I-12" target="UOz1emexsOZY1gAcWL7I-3" edge="1">
          <mxGeometry width="50" height="50" relative="1" as="geometry">
            <mxPoint x="40" y="130" as="sourcePoint" />
            <mxPoint x="90" y="80" as="targetPoint" />
          </mxGeometry>
        </mxCell>
        <mxCell id="UOz1emexsOZY1gAcWL7I-22" value="" style="endArrow=none;html=1;rounded=0;" parent="1" source="UOz1emexsOZY1gAcWL7I-5" target="UOz1emexsOZY1gAcWL7I-3" edge="1">
          <mxGeometry width="50" height="50" relative="1" as="geometry">
            <mxPoint x="40" y="130" as="sourcePoint" />
            <mxPoint x="90" y="80" as="targetPoint" />
          </mxGeometry>
        </mxCell>
        <mxCell id="UOz1emexsOZY1gAcWL7I-23" value="" style="endArrow=none;html=1;rounded=0;" parent="1" source="UOz1emexsOZY1gAcWL7I-10" target="UOz1emexsOZY1gAcWL7I-3" edge="1">
          <mxGeometry width="50" height="50" relative="1" as="geometry">
            <mxPoint x="40" y="130" as="sourcePoint" />
            <mxPoint x="100" y="60" as="targetPoint" />
          </mxGeometry>
        </mxCell>
        <mxCell id="UOz1emexsOZY1gAcWL7I-24" value="" style="endArrow=none;html=1;rounded=0;" parent="1" source="UOz1emexsOZY1gAcWL7I-11" target="UOz1emexsOZY1gAcWL7I-3" edge="1">
          <mxGeometry width="50" height="50" relative="1" as="geometry">
            <mxPoint x="40" y="130" as="sourcePoint" />
            <mxPoint x="90" y="80" as="targetPoint" />
          </mxGeometry>
        </mxCell>
        <mxCell id="UOz1emexsOZY1gAcWL7I-25" value="" style="endArrow=none;html=1;rounded=0;" parent="1" source="UOz1emexsOZY1gAcWL7I-4" target="UOz1emexsOZY1gAcWL7I-3" edge="1">
          <mxGeometry width="50" height="50" relative="1" as="geometry">
            <mxPoint x="40" y="130" as="sourcePoint" />
            <mxPoint x="90" y="80" as="targetPoint" />
          </mxGeometry>
        </mxCell>
        <mxCell id="UOz1emexsOZY1gAcWL7I-26" value="" style="endArrow=none;html=1;rounded=0;" parent="1" source="UOz1emexsOZY1gAcWL7I-8" target="UOz1emexsOZY1gAcWL7I-3" edge="1">
          <mxGeometry width="50" height="50" relative="1" as="geometry">
            <mxPoint x="40" y="130" as="sourcePoint" />
            <mxPoint x="90" y="80" as="targetPoint" />
          </mxGeometry>
        </mxCell>
        <mxCell id="UOz1emexsOZY1gAcWL7I-27" value="" style="endArrow=none;html=1;rounded=0;" parent="1" source="UOz1emexsOZY1gAcWL7I-3" target="UOz1emexsOZY1gAcWL7I-9" edge="1">
          <mxGeometry width="50" height="50" relative="1" as="geometry">
            <mxPoint x="120" y="220" as="sourcePoint" />
            <mxPoint x="170" y="170" as="targetPoint" />
          </mxGeometry>
        </mxCell>
        <mxCell id="UOz1emexsOZY1gAcWL7I-28" value="t_abschluss" style="whiteSpace=wrap;html=1;align=center;" parent="1" vertex="1">
          <mxGeometry x="-70" y="320" width="100" height="40" as="geometry" />
        </mxCell>
        <mxCell id="UOz1emexsOZY1gAcWL7I-29" value="abschlussklasse" style="ellipse;whiteSpace=wrap;html=1;align=center;" parent="1" vertex="1">
          <mxGeometry x="-210" y="260" width="100" height="40" as="geometry" />
        </mxCell>
        <mxCell id="UOz1emexsOZY1gAcWL7I-30" value="&lt;u&gt;abschlussjahr&lt;/u&gt;" style="ellipse;whiteSpace=wrap;html=1;align=center;" parent="1" vertex="1">
          <mxGeometry x="-210" y="320" width="100" height="40" as="geometry" />
        </mxCell>
        <mxCell id="UOz1emexsOZY1gAcWL7I-31" value="FK_fortlaufendeNr" style="ellipse;whiteSpace=wrap;html=1;align=center;fontStyle=4;" parent="1" vertex="1">
          <mxGeometry x="-210" y="380" width="100" height="40" as="geometry" />
        </mxCell>
        <mxCell id="UOz1emexsOZY1gAcWL7I-32" value="" style="endArrow=none;html=1;rounded=0;" parent="1" source="UOz1emexsOZY1gAcWL7I-30" target="UOz1emexsOZY1gAcWL7I-28" edge="1">
          <mxGeometry width="50" height="50" relative="1" as="geometry">
            <mxPoint x="-40" y="280" as="sourcePoint" />
            <mxPoint x="10" y="230" as="targetPoint" />
          </mxGeometry>
        </mxCell>
        <mxCell id="UOz1emexsOZY1gAcWL7I-33" value="" style="endArrow=none;html=1;rounded=0;" parent="1" source="UOz1emexsOZY1gAcWL7I-31" target="UOz1emexsOZY1gAcWL7I-28" edge="1">
          <mxGeometry width="50" height="50" relative="1" as="geometry">
            <mxPoint x="40" y="390" as="sourcePoint" />
            <mxPoint x="90" y="340" as="targetPoint" />
          </mxGeometry>
        </mxCell>
        <mxCell id="UOz1emexsOZY1gAcWL7I-34" value="" style="endArrow=none;html=1;rounded=0;" parent="1" source="UOz1emexsOZY1gAcWL7I-29" target="UOz1emexsOZY1gAcWL7I-28" edge="1">
          <mxGeometry width="50" height="50" relative="1" as="geometry">
            <mxPoint x="40" y="390" as="sourcePoint" />
            <mxPoint x="90" y="340" as="targetPoint" />
          </mxGeometry>
        </mxCell>
        <mxCell id="UOz1emexsOZY1gAcWL7I-35" value="t_einzahlung" style="whiteSpace=wrap;html=1;align=center;" parent="1" vertex="1">
          <mxGeometry x="440" y="40" width="100" height="40" as="geometry" />
        </mxCell>
        <mxCell id="UOz1emexsOZY1gAcWL7I-37" value="&lt;u&gt;FK_fortlaufendeNr&lt;/u&gt;" style="ellipse;whiteSpace=wrap;html=1;align=center;" parent="1" vertex="1">
          <mxGeometry x="590" y="-20" width="100" height="40" as="geometry" />
        </mxCell>
        <mxCell id="UOz1emexsOZY1gAcWL7I-38" value="betrag" style="ellipse;whiteSpace=wrap;html=1;align=center;" parent="1" vertex="1">
          <mxGeometry x="590" y="40" width="100" height="40" as="geometry" />
        </mxCell>
        <mxCell id="UOz1emexsOZY1gAcWL7I-39" value="&lt;u&gt;datum&lt;/u&gt;" style="ellipse;whiteSpace=wrap;html=1;align=center;" parent="1" vertex="1">
          <mxGeometry x="590" y="100" width="100" height="40" as="geometry" />
        </mxCell>
        <mxCell id="UOz1emexsOZY1gAcWL7I-40" value="" style="endArrow=none;html=1;rounded=0;" parent="1" source="UOz1emexsOZY1gAcWL7I-35" target="UOz1emexsOZY1gAcWL7I-39" edge="1">
          <mxGeometry width="50" height="50" relative="1" as="geometry">
            <mxPoint x="460" y="270" as="sourcePoint" />
            <mxPoint x="510" y="220" as="targetPoint" />
          </mxGeometry>
        </mxCell>
        <mxCell id="UOz1emexsOZY1gAcWL7I-41" value="" style="endArrow=none;html=1;rounded=0;" parent="1" source="UOz1emexsOZY1gAcWL7I-38" target="UOz1emexsOZY1gAcWL7I-35" edge="1">
          <mxGeometry width="50" height="50" relative="1" as="geometry">
            <mxPoint x="460" y="270" as="sourcePoint" />
            <mxPoint x="510" y="220" as="targetPoint" />
          </mxGeometry>
        </mxCell>
        <mxCell id="UOz1emexsOZY1gAcWL7I-42" value="" style="endArrow=none;html=1;rounded=0;" parent="1" source="UOz1emexsOZY1gAcWL7I-37" target="UOz1emexsOZY1gAcWL7I-35" edge="1">
          <mxGeometry width="50" height="50" relative="1" as="geometry">
            <mxPoint x="460" y="270" as="sourcePoint" />
            <mxPoint x="510" y="220" as="targetPoint" />
          </mxGeometry>
        </mxCell>
        <mxCell id="UOz1emexsOZY1gAcWL7I-66" value="t_versand" style="whiteSpace=wrap;html=1;align=center;" parent="1" vertex="1">
          <mxGeometry x="330" y="350" width="100" height="40" as="geometry" />
        </mxCell>
        <mxCell id="UOz1emexsOZY1gAcWL7I-67" value="versand_post" style="ellipse;whiteSpace=wrap;html=1;align=center;" parent="1" vertex="1">
          <mxGeometry x="220" y="494" width="100" height="40" as="geometry" />
        </mxCell>
        <mxCell id="UOz1emexsOZY1gAcWL7I-68" value="versand_email" style="ellipse;whiteSpace=wrap;html=1;align=center;" parent="1" vertex="1">
          <mxGeometry x="330" y="494" width="100" height="40" as="geometry" />
        </mxCell>
        <mxCell id="UOz1emexsOZY1gAcWL7I-70" value="versand_newsletter" style="ellipse;whiteSpace=wrap;html=1;align=center;" parent="1" vertex="1">
          <mxGeometry x="550" y="494" width="100" height="40" as="geometry" />
        </mxCell>
        <mxCell id="UOz1emexsOZY1gAcWL7I-71" value="FK_email" style="ellipse;whiteSpace=wrap;html=1;align=center;" parent="1" vertex="1">
          <mxGeometry x="110" y="494" width="100" height="40" as="geometry" />
        </mxCell>
        <mxCell id="UOz1emexsOZY1gAcWL7I-73" value="PLZ" style="ellipse;whiteSpace=wrap;html=1;align=center;" parent="1" vertex="1">
          <mxGeometry x="275" y="440" width="100" height="40" as="geometry" />
        </mxCell>
        <mxCell id="UOz1emexsOZY1gAcWL7I-74" value="&lt;span style=&quot;text-decoration-line: underline;&quot;&gt;fortlaufendeNr&lt;/span&gt;" style="ellipse;whiteSpace=wrap;html=1;align=center;" parent="1" vertex="1">
          <mxGeometry x="165" y="440" width="100" height="40" as="geometry" />
        </mxCell>
        <mxCell id="UOz1emexsOZY1gAcWL7I-75" value="urspruengliche_adresse" style="ellipse;whiteSpace=wrap;html=1;align=center;" parent="1" vertex="1">
          <mxGeometry x="385" y="440" width="100" height="40" as="geometry" />
        </mxCell>
        <mxCell id="UOz1emexsOZY1gAcWL7I-76" value="urspruengliche_PLZ" style="ellipse;whiteSpace=wrap;html=1;align=center;" parent="1" vertex="1">
          <mxGeometry x="495" y="440" width="100" height="40" as="geometry" />
        </mxCell>
        <mxCell id="UOz1emexsOZY1gAcWL7I-77" value="" style="endArrow=none;html=1;rounded=0;" parent="1" source="UOz1emexsOZY1gAcWL7I-70" target="UOz1emexsOZY1gAcWL7I-66" edge="1">
          <mxGeometry width="50" height="50" relative="1" as="geometry">
            <mxPoint x="330" y="440" as="sourcePoint" />
            <mxPoint x="380" y="390" as="targetPoint" />
          </mxGeometry>
        </mxCell>
        <mxCell id="UOz1emexsOZY1gAcWL7I-78" value="" style="endArrow=none;html=1;rounded=0;" parent="1" source="UOz1emexsOZY1gAcWL7I-76" target="UOz1emexsOZY1gAcWL7I-66" edge="1">
          <mxGeometry width="50" height="50" relative="1" as="geometry">
            <mxPoint x="330" y="440" as="sourcePoint" />
            <mxPoint x="380" y="390" as="targetPoint" />
          </mxGeometry>
        </mxCell>
        <mxCell id="UOz1emexsOZY1gAcWL7I-79" value="" style="endArrow=none;html=1;rounded=0;" parent="1" source="UOz1emexsOZY1gAcWL7I-89" target="UOz1emexsOZY1gAcWL7I-66" edge="1">
          <mxGeometry width="50" height="50" relative="1" as="geometry">
            <mxPoint x="475.49963023584496" y="494.8595119113156" as="sourcePoint" />
            <mxPoint x="380" y="390" as="targetPoint" />
          </mxGeometry>
        </mxCell>
        <mxCell id="UOz1emexsOZY1gAcWL7I-80" value="" style="endArrow=none;html=1;rounded=0;" parent="1" source="UOz1emexsOZY1gAcWL7I-75" target="UOz1emexsOZY1gAcWL7I-66" edge="1">
          <mxGeometry width="50" height="50" relative="1" as="geometry">
            <mxPoint x="330" y="440" as="sourcePoint" />
            <mxPoint x="380" y="390" as="targetPoint" />
          </mxGeometry>
        </mxCell>
        <mxCell id="UOz1emexsOZY1gAcWL7I-81" value="" style="endArrow=none;html=1;rounded=0;" parent="1" source="UOz1emexsOZY1gAcWL7I-68" target="UOz1emexsOZY1gAcWL7I-66" edge="1">
          <mxGeometry width="50" height="50" relative="1" as="geometry">
            <mxPoint x="330" y="440" as="sourcePoint" />
            <mxPoint x="380" y="390" as="targetPoint" />
          </mxGeometry>
        </mxCell>
        <mxCell id="UOz1emexsOZY1gAcWL7I-82" value="" style="endArrow=none;html=1;rounded=0;" parent="1" source="UOz1emexsOZY1gAcWL7I-73" target="UOz1emexsOZY1gAcWL7I-66" edge="1">
          <mxGeometry width="50" height="50" relative="1" as="geometry">
            <mxPoint x="330" y="440" as="sourcePoint" />
            <mxPoint x="390" y="370" as="targetPoint" />
          </mxGeometry>
        </mxCell>
        <mxCell id="UOz1emexsOZY1gAcWL7I-83" value="" style="endArrow=none;html=1;rounded=0;" parent="1" source="UOz1emexsOZY1gAcWL7I-74" target="UOz1emexsOZY1gAcWL7I-66" edge="1">
          <mxGeometry width="50" height="50" relative="1" as="geometry">
            <mxPoint x="330" y="440" as="sourcePoint" />
            <mxPoint x="380" y="390" as="targetPoint" />
          </mxGeometry>
        </mxCell>
        <mxCell id="UOz1emexsOZY1gAcWL7I-84" value="" style="endArrow=none;html=1;rounded=0;" parent="1" source="UOz1emexsOZY1gAcWL7I-67" target="UOz1emexsOZY1gAcWL7I-66" edge="1">
          <mxGeometry width="50" height="50" relative="1" as="geometry">
            <mxPoint x="330" y="440" as="sourcePoint" />
            <mxPoint x="380" y="390" as="targetPoint" />
          </mxGeometry>
        </mxCell>
        <mxCell id="UOz1emexsOZY1gAcWL7I-85" value="" style="endArrow=none;html=1;rounded=0;" parent="1" source="UOz1emexsOZY1gAcWL7I-71" target="UOz1emexsOZY1gAcWL7I-66" edge="1">
          <mxGeometry width="50" height="50" relative="1" as="geometry">
            <mxPoint x="330" y="440" as="sourcePoint" />
            <mxPoint x="380" y="390" as="targetPoint" />
          </mxGeometry>
        </mxCell>
        <mxCell id="UOz1emexsOZY1gAcWL7I-89" value="derzeitige_adresse" style="ellipse;whiteSpace=wrap;html=1;align=center;" parent="1" vertex="1">
          <mxGeometry x="435" y="494" width="100" height="40" as="geometry" />
        </mxCell>
        <mxCell id="UOz1emexsOZY1gAcWL7I-90" value="zahlt ein" style="shape=rhombus;perimeter=rhombusPerimeter;whiteSpace=wrap;html=1;align=center;" parent="1" vertex="1">
          <mxGeometry x="250" y="30" width="120" height="60" as="geometry" />
        </mxCell>
        <mxCell id="UOz1emexsOZY1gAcWL7I-91" value="schließt ab" style="shape=rhombus;perimeter=rhombusPerimeter;whiteSpace=wrap;html=1;align=center;" parent="1" vertex="1">
          <mxGeometry x="-80" y="150" width="120" height="60" as="geometry" />
        </mxCell>
        <mxCell id="UOz1emexsOZY1gAcWL7I-92" value="" style="endArrow=none;html=1;rounded=0;" parent="1" source="UOz1emexsOZY1gAcWL7I-91" target="UOz1emexsOZY1gAcWL7I-28" edge="1">
          <mxGeometry width="50" height="50" relative="1" as="geometry">
            <mxPoint x="170" y="280" as="sourcePoint" />
            <mxPoint x="220" y="230" as="targetPoint" />
          </mxGeometry>
        </mxCell>
        <mxCell id="UOz1emexsOZY1gAcWL7I-93" value="" style="endArrow=none;html=1;rounded=0;" parent="1" source="UOz1emexsOZY1gAcWL7I-3" target="UOz1emexsOZY1gAcWL7I-91" edge="1">
          <mxGeometry width="50" height="50" relative="1" as="geometry">
            <mxPoint x="170" y="280" as="sourcePoint" />
            <mxPoint x="220" y="230" as="targetPoint" />
          </mxGeometry>
        </mxCell>
        <mxCell id="UOz1emexsOZY1gAcWL7I-94" value="" style="endArrow=none;html=1;rounded=0;" parent="1" source="UOz1emexsOZY1gAcWL7I-90" target="UOz1emexsOZY1gAcWL7I-35" edge="1">
          <mxGeometry width="50" height="50" relative="1" as="geometry">
            <mxPoint x="170" y="280" as="sourcePoint" />
            <mxPoint x="220" y="230" as="targetPoint" />
          </mxGeometry>
        </mxCell>
        <mxCell id="UOz1emexsOZY1gAcWL7I-95" value="" style="endArrow=none;html=1;rounded=0;" parent="1" source="UOz1emexsOZY1gAcWL7I-3" target="UOz1emexsOZY1gAcWL7I-90" edge="1">
          <mxGeometry width="50" height="50" relative="1" as="geometry">
            <mxPoint x="170" y="280" as="sourcePoint" />
            <mxPoint x="220" y="230" as="targetPoint" />
          </mxGeometry>
        </mxCell>
        <mxCell id="UOz1emexsOZY1gAcWL7I-96" value="[1...1]" style="text;html=1;align=center;verticalAlign=middle;resizable=0;points=[];autosize=1;strokeColor=none;fillColor=none;" parent="1" vertex="1">
          <mxGeometry x="139" y="55" width="50" height="30" as="geometry" />
        </mxCell>
        <mxCell id="UOz1emexsOZY1gAcWL7I-97" value="[0...*]" style="text;html=1;align=center;verticalAlign=middle;resizable=0;points=[];autosize=1;strokeColor=none;fillColor=none;" parent="1" vertex="1">
          <mxGeometry x="390" y="55" width="50" height="30" as="geometry" />
        </mxCell>
        <mxCell id="UOz1emexsOZY1gAcWL7I-98" value="[1...1]" style="text;html=1;align=center;verticalAlign=middle;resizable=0;points=[];autosize=1;strokeColor=none;fillColor=none;" parent="1" vertex="1">
          <mxGeometry y="80" width="50" height="30" as="geometry" />
        </mxCell>
        <mxCell id="UOz1emexsOZY1gAcWL7I-99" value="[0...3]" style="text;html=1;align=center;verticalAlign=middle;resizable=0;points=[];autosize=1;strokeColor=none;fillColor=none;" parent="1" vertex="1">
          <mxGeometry x="-26" y="288" width="50" height="30" as="geometry" />
        </mxCell>
        <mxCell id="UOz1emexsOZY1gAcWL7I-100" value="erhält newsletter" style="shape=rhombus;perimeter=rhombusPerimeter;whiteSpace=wrap;html=1;align=center;" parent="1" vertex="1">
          <mxGeometry x="200" y="180" width="120" height="60" as="geometry" />
        </mxCell>
        <mxCell id="UOz1emexsOZY1gAcWL7I-101" value="" style="endArrow=none;html=1;rounded=0;" parent="1" source="UOz1emexsOZY1gAcWL7I-66" target="UOz1emexsOZY1gAcWL7I-100" edge="1">
          <mxGeometry width="50" height="50" relative="1" as="geometry">
            <mxPoint x="170" y="280" as="sourcePoint" />
            <mxPoint x="220" y="230" as="targetPoint" />
          </mxGeometry>
        </mxCell>
        <mxCell id="UOz1emexsOZY1gAcWL7I-102" value="" style="endArrow=none;html=1;rounded=0;" parent="1" source="UOz1emexsOZY1gAcWL7I-3" target="UOz1emexsOZY1gAcWL7I-100" edge="1">
          <mxGeometry width="50" height="50" relative="1" as="geometry">
            <mxPoint x="170" y="280" as="sourcePoint" />
            <mxPoint x="220" y="230" as="targetPoint" />
          </mxGeometry>
        </mxCell>
        <mxCell id="UOz1emexsOZY1gAcWL7I-103" value="[1...1]" style="text;html=1;align=center;verticalAlign=middle;resizable=0;points=[];autosize=1;strokeColor=none;fillColor=none;" parent="1" vertex="1">
          <mxGeometry x="89" y="85" width="50" height="30" as="geometry" />
        </mxCell>
        <mxCell id="UOz1emexsOZY1gAcWL7I-104" value="[0...1]" style="text;html=1;align=center;verticalAlign=middle;resizable=0;points=[];autosize=1;strokeColor=none;fillColor=none;" parent="1" vertex="1">
          <mxGeometry x="358" y="323" width="50" height="30" as="geometry" />
        </mxCell>
        <mxCell id="UOz1emexsOZY1gAcWL7I-105" value="t_abteilung" style="whiteSpace=wrap;html=1;align=center;" parent="1" vertex="1">
          <mxGeometry x="520" y="233" width="100" height="40" as="geometry" />
        </mxCell>
        <mxCell id="UOz1emexsOZY1gAcWL7I-106" value="&lt;u&gt;ID&lt;/u&gt;" style="ellipse;whiteSpace=wrap;html=1;align=center;" parent="1" vertex="1">
          <mxGeometry x="660" y="183" width="100" height="40" as="geometry" />
        </mxCell>
        <mxCell id="UOz1emexsOZY1gAcWL7I-107" value="Bezeichnung" style="ellipse;whiteSpace=wrap;html=1;align=center;" parent="1" vertex="1">
          <mxGeometry x="660" y="233" width="100" height="40" as="geometry" />
        </mxCell>
        <mxCell id="UOz1emexsOZY1gAcWL7I-108" value="Kuerzel" style="ellipse;whiteSpace=wrap;html=1;align=center;" parent="1" vertex="1">
          <mxGeometry x="660" y="283" width="100" height="40" as="geometry" />
        </mxCell>
        <mxCell id="UOz1emexsOZY1gAcWL7I-109" value="" style="endArrow=none;html=1;rounded=0;" parent="1" source="UOz1emexsOZY1gAcWL7I-105" target="UOz1emexsOZY1gAcWL7I-108" edge="1">
          <mxGeometry width="50" height="50" relative="1" as="geometry">
            <mxPoint x="330" y="283" as="sourcePoint" />
            <mxPoint x="380" y="233" as="targetPoint" />
          </mxGeometry>
        </mxCell>
        <mxCell id="UOz1emexsOZY1gAcWL7I-110" value="" style="endArrow=none;html=1;rounded=0;" parent="1" source="UOz1emexsOZY1gAcWL7I-105" target="UOz1emexsOZY1gAcWL7I-107" edge="1">
          <mxGeometry width="50" height="50" relative="1" as="geometry">
            <mxPoint x="330" y="283" as="sourcePoint" />
            <mxPoint x="380" y="233" as="targetPoint" />
          </mxGeometry>
        </mxCell>
        <mxCell id="UOz1emexsOZY1gAcWL7I-111" value="" style="endArrow=none;html=1;rounded=0;" parent="1" source="UOz1emexsOZY1gAcWL7I-106" target="UOz1emexsOZY1gAcWL7I-105" edge="1">
          <mxGeometry width="50" height="50" relative="1" as="geometry">
            <mxPoint x="330" y="283" as="sourcePoint" />
            <mxPoint x="380" y="233" as="targetPoint" />
          </mxGeometry>
        </mxCell>
      </root>
    </mxGraphModel>
  </diagram>
</mxfile>
